<svg xmlns="http://www.w3.org/2000/svg" width="300" height="176"><path fill="#5d7485" stroke="#5d7485" stroke-width="1.51" d="M167,79L118,30L58,112Z"/><path fill="#6d8daa" stroke="#6d8daa" stroke-width="1.51" d="M118,30L27,26L58,112Z"/><path fill="#566c7b" stroke="#566c7b" stroke-width="1.51" d="M58,112L69,185L167,79Z"/><path fill="#5b7993" stroke="#5b7993" stroke-width="1.51" d="M61,253L69,185L-34,209Z"/><path fill="#495b64" stroke="#495b64" stroke-width="1.51" d="M69,185L178,204L167,79Z"/><path fill="#607a8e" stroke="#607a8e" stroke-width="1.51" d="M167,79L251,5L118,30Z"/><path fill="#47575f" stroke="#47575f" stroke-width="1.51" d="M178,204L260,78L167,79Z"/><path fill="#7fadd9" stroke="#7fadd9" stroke-width="1.51" d="M118,30L69,-66L27,26Z"/><path fill="#78a1c7" stroke="#78a1c7" stroke-width="1.51" d="M132,-109L69,-66L118,30Z"/><path fill="#566c7d" stroke="#566c7d" stroke-width="1.51" d="M260,78L251,5L167,79Z"/><path fill="#495b67" stroke="#495b67" stroke-width="1.51" d="M69,185L133,286L178,204Z"/><path fill="#5c7b94" stroke="#5c7b94" stroke-width="1.51" d="M-34,209L69,185L58,112Z"/><path fill="#759cc0" stroke="#759cc0" stroke-width="1.51" d="M27,26L-62,63L58,112Z"/><path fill="#82b2e2" stroke="#82b2e2" stroke-width="1.51" d="M-48,9L-62,63L27,26Z"/><path fill="#8cc6ff" stroke="#8cc6ff" stroke-width="1.51" d="M-9,-103L-48,9L27,26Z"/><path fill="#6b8ead" stroke="#6b8ead" stroke-width="1.51" d="M251,5L214,-70L118,30Z"/><path fill="#698baa" stroke="#698baa" stroke-width="1.51" d="M-62,63L-34,209L58,112Z"/><path fill="#3f4f57" stroke="#3f4f57" stroke-width="1.51" d="M178,204L268,194L260,78Z"/><path fill="#3e4e56" stroke="#3e4e56" stroke-width="1.51" d="M210,274L268,194L178,204Z"/><path fill="#87bbef" stroke="#87bbef" stroke-width="1.51" d="M69,-66L-9,-103L27,26Z"/><path fill="#6f91b1" stroke="#6f91b1" stroke-width="1.51" d="M214,-70L132,-109L118,30Z"/><path fill="#506778" stroke="#506778" stroke-width="1.51" d="M61,253L133,286L69,185Z"/><path fill="#42525a" stroke="#42525a" stroke-width="1.51" d="M133,286L210,274L178,204Z"/><path fill="#405058" stroke="#405058" stroke-width="1.51" d="M268,194L328,88L260,78Z"/><path fill="#59758b" stroke="#59758b" stroke-width="1.51" d="M260,78L323,9L251,5Z"/><path fill="#6487a6" stroke="#6487a6" stroke-width="1.51" d="M251,5L323,9L214,-70Z"/><path fill="#80afdd" stroke="#80afdd" stroke-width="1.51" d="M132,-109L-9,-103L69,-66Z"/><path fill="#4e6473" stroke="#4e6473" stroke-width="1.51" d="M328,88L323,9L260,78Z"/><path fill="#8cc6ff" stroke="#8cc6ff" stroke-width="1.51" d="M-123,-70L-114,24L-48,9Z"/><path fill="#82b3e2" stroke="#82b3e2" stroke-width="1.51" d="M-48,9L-114,24L-62,63Z"/><path fill="#698cab" stroke="#698cab" stroke-width="1.51" d="M-62,63L-145,100L-34,209Z"/><path fill="#5f819e" stroke="#5f819e" stroke-width="1.51" d="M-34,209L0,297L61,253Z"/><path fill="#546f83" stroke="#546f83" stroke-width="1.51" d="M61,253L0,297L133,286Z"/><path fill="#6184a3" stroke="#6184a3" stroke-width="1.51" d="M-98,236L0,297L-34,209Z"/><path fill="#506879" stroke="#506879" stroke-width="1.51" d="M328,88L416,56L323,9Z"/><path fill="#394951" stroke="#394951" stroke-width="1.51" d="M268,194L342,192L328,88Z"/><path fill="#37474f" stroke="#37474f" stroke-width="1.51" d="M313,284L342,192L268,194Z"/><path fill="#78a1c7" stroke="#78a1c7" stroke-width="1.51" d="M-114,24L-145,100L-62,63Z"/><path fill="#6184a3" stroke="#6184a3" stroke-width="1.51" d="M-147,191L-98,236L-34,209Z"/><path fill="#6285a4" stroke="#6285a4" stroke-width="1.51" d="M-145,100L-147,191L-34,209Z"/><path fill="#86bbef" stroke="#86bbef" stroke-width="1.51" d="M-114,24L-123,-70L-145,100Z"/><path fill="#8cc6ff" stroke="#8cc6ff" stroke-width="1.51" d="M-9,-103L-123,-70L-48,9Z"/><path fill="#3a4a52" stroke="#3a4a52" stroke-width="1.51" d="M210,274L313,284L268,194Z"/><path fill="#3e4e56" stroke="#3e4e56" stroke-width="1.51" d="M133,286L313,284L210,274Z"/><path fill="#44545c" stroke="#44545c" stroke-width="1.51" d="M0,297L313,284L133,286Z"/><path fill="#6184a3" stroke="#6184a3" stroke-width="1.51" d="M323,9L363,-109L214,-70Z"/><path fill="#42525a" stroke="#42525a" stroke-width="1.51" d="M448,163L416,56L328,88Z"/><path fill="#3b4b53" stroke="#3b4b53" stroke-width="1.51" d="M448,163L328,88L342,192Z"/><path fill="#6184a3" stroke="#6184a3" stroke-width="1.51" d="M431,-9L363,-109L323,9Z"/><path fill="#678aa9" stroke="#678aa9" stroke-width="1.51" d="M214,-70L363,-109L132,-109Z"/><path fill="#5b7993" stroke="#5b7993" stroke-width="1.51" d="M416,56L431,-9L323,9Z"/><path fill="#37474f" stroke="#37474f" stroke-width="1.51" d="M402,284L448,163L342,192Z"/><path fill="#4a5e6a" stroke="#4a5e6a" stroke-width="1.51" d="M416,56L448,163L431,-9Z"/><path fill="#6184a3" stroke="#6184a3" stroke-width="1.51" d="M431,-9L388,-125L363,-109Z"/><path fill="#6184a3" stroke="#6184a3" stroke-width="1.51" d="M363,-109L388,-125L132,-109Z"/><path fill="#6d90af" stroke="#6d90af" stroke-width="1.51" d="M132,-109L388,-125L-9,-103Z"/><path fill="#37474f" stroke="#37474f" stroke-width="1.51" d="M313,284L402,284L342,192Z"/><path fill="#3c4c54" stroke="#3c4c54" stroke-width="1.51" d="M0,297L402,284L313,284Z"/></svg>