<svg xmlns="http://www.w3.org/2000/svg" width="300" height="176"><path fill="#127175" stroke="#127175" stroke-width="1.51" d="M161,103L169,159L230,116Z"/><path fill="#0b6a6e" stroke="#0b6a6e" stroke-width="1.51" d="M169,159L218,210L230,116Z"/><path fill="#2f9091" stroke="#2f9091" stroke-width="1.51" d="M246,22L153,29L161,103Z"/><path fill="#1b797d" stroke="#1b797d" stroke-width="1.51" d="M230,116L246,22L161,103Z"/><path fill="#127174" stroke="#127174" stroke-width="1.51" d="M362,118L246,22L230,116Z"/><path fill="#1e7c7f" stroke="#1e7c7f" stroke-width="1.51" d="M161,103L43,148L169,159Z"/><path fill="#309192" stroke="#309192" stroke-width="1.51" d="M153,29L87,58L161,103Z"/><path fill="#187578" stroke="#187578" stroke-width="1.51" d="M88,236L127,259L169,159Z"/><path fill="#0c6b6f" stroke="#0c6b6f" stroke-width="1.51" d="M169,159L127,259L218,210Z"/><path fill="#2c8d8e" stroke="#2c8d8e" stroke-width="1.51" d="M87,58L43,148L161,103Z"/><path fill="#238082" stroke="#238082" stroke-width="1.51" d="M43,148L88,236L169,159Z"/><path fill="#0a696d" stroke="#0a696d" stroke-width="1.51" d="M127,259L218,289L218,210Z"/><path fill="#046468" stroke="#046468" stroke-width="1.51" d="M218,210L357,161L230,116Z"/><path fill="#006064" stroke="#006064" stroke-width="1.51" d="M321,248L357,161L218,210Z"/><path fill="#07666a" stroke="#07666a" stroke-width="1.51" d="M357,161L362,118L230,116Z"/><path fill="#046468" stroke="#046468" stroke-width="1.51" d="M218,289L321,248L218,210Z"/><path fill="#44a9a6" stroke="#44a9a6" stroke-width="1.51" d="M87,58L-47,108L43,148Z"/><path fill="#6adcd2" stroke="#6adcd2" stroke-width="1.51" d="M75,-72L26,9L87,58Z"/><path fill="#5ac6c0" stroke="#5ac6c0" stroke-width="1.51" d="M75,-72L87,58L153,29Z"/><path fill="#4bb2ad" stroke="#4bb2ad" stroke-width="1.51" d="M246,22L221,-100L153,29Z"/><path fill="#308f8f" stroke="#308f8f" stroke-width="1.51" d="M362,118L329,-30L246,22Z"/><path fill="#006064" stroke="#006064" stroke-width="1.51" d="M321,248L395,200L357,161Z"/><path fill="#026266" stroke="#026266" stroke-width="1.51" d="M357,161L395,200L362,118Z"/><path fill="#329090" stroke="#329090" stroke-width="1.51" d="M362,118L408,16L329,-30Z"/><path fill="#3a9a98" stroke="#3a9a98" stroke-width="1.51" d="M43,148L-27,185L88,236Z"/><path fill="#2f8e8d" stroke="#2f8e8d" stroke-width="1.51" d="M88,236L-16,276L127,259Z"/><path fill="#48ada9" stroke="#48ada9" stroke-width="1.51" d="M-47,108L-27,185L43,148Z"/><path fill="#47aca8" stroke="#47aca8" stroke-width="1.51" d="M329,-30L221,-100L246,22Z"/><path fill="#56c1bb" stroke="#56c1bb" stroke-width="1.51" d="M152,-107L75,-72L153,29Z"/><path fill="#4db5b0" stroke="#4db5b0" stroke-width="1.51" d="M221,-100L152,-107L153,29Z"/><path fill="#65d5cc" stroke="#65d5cc" stroke-width="1.51" d="M-25,23L-47,108L26,9Z"/><path fill="#58c3bd" stroke="#58c3bd" stroke-width="1.51" d="M26,9L-47,108L87,58Z"/><path fill="#7ff8ea" stroke="#7ff8ea" stroke-width="1.51" d="M-9,-118L-25,23L26,9Z"/><path fill="#45a9a4" stroke="#45a9a4" stroke-width="1.51" d="M329,-30L352,-104L221,-100Z"/><path fill="#1a777a" stroke="#1a777a" stroke-width="1.51" d="M451,83L408,16L362,118Z"/><path fill="#40a39f" stroke="#40a39f" stroke-width="1.51" d="M-27,185L-16,276L88,236Z"/><path fill="#207c7e" stroke="#207c7e" stroke-width="1.51" d="M127,259L-16,276L218,289Z"/><path fill="#45a9a4" stroke="#45a9a4" stroke-width="1.51" d="M-104,248L-16,276L-27,185Z"/><path fill="#06666a" stroke="#06666a" stroke-width="1.51" d="M395,200L451,83L362,118Z"/><path fill="#45a9a4" stroke="#45a9a4" stroke-width="1.51" d="M434,-112L352,-104L408,16Z"/><path fill="#45a9a4" stroke="#45a9a4" stroke-width="1.51" d="M408,16L352,-104L329,-30Z"/><path fill="#49aeaa" stroke="#49aeaa" stroke-width="1.51" d="M221,-100L352,-104L152,-107Z"/><path fill="#006064" stroke="#006064" stroke-width="1.51" d="M395,200L433,278L451,83Z"/><path fill="#006064" stroke="#006064" stroke-width="1.51" d="M321,248L433,278L395,200Z"/><path fill="#006064" stroke="#006064" stroke-width="1.51" d="M218,289L433,278L321,248Z"/><path fill="#48ada9" stroke="#48ada9" stroke-width="1.51" d="M-47,108L-109,150L-27,185Z"/><path fill="#5cc9c2" stroke="#5cc9c2" stroke-width="1.51" d="M-25,23L-93,58L-47,108Z"/><path fill="#6cded4" stroke="#6cded4" stroke-width="1.51" d="M-94,23L-93,58L-25,23Z"/><path fill="#4db4b0" stroke="#4db4b0" stroke-width="1.51" d="M-93,58L-109,150L-47,108Z"/><path fill="#68d9d0" stroke="#68d9d0" stroke-width="1.51" d="M-93,58L-140,-84L-109,150Z"/><path fill="#7ff8ea" stroke="#7ff8ea" stroke-width="1.51" d="M-9,-118L-94,23L-25,23Z"/><path fill="#75eade" stroke="#75eade" stroke-width="1.51" d="M75,-72L-9,-118L26,9Z"/><path fill="#67d8cf" stroke="#67d8cf" stroke-width="1.51" d="M152,-107L-9,-118L75,-72Z"/><path fill="#4cb3af" stroke="#4cb3af" stroke-width="1.51" d="M434,-112L-9,-118L152,-107Z"/><path fill="#45a9a4" stroke="#45a9a4" stroke-width="1.51" d="M-109,150L-104,248L-27,185Z"/><path fill="#45a9a4" stroke="#45a9a4" stroke-width="1.51" d="M352,-104L434,-112L152,-107Z"/><path fill="#45a9a4" stroke="#45a9a4" stroke-width="1.51" d="M451,83L434,-112L408,16Z"/><path fill="#7ff8ea" stroke="#7ff8ea" stroke-width="1.51" d="M-9,-118L-140,-84L-94,23Z"/><path fill="#7ff8ea" stroke="#7ff8ea" stroke-width="1.51" d="M-94,23L-140,-84L-93,58Z"/><path fill="#4db4b0" stroke="#4db4b0" stroke-width="1.51" d="M-109,150L-140,-84L-104,248Z"/></svg>