<svg xmlns="http://www.w3.org/2000/svg" width="300" height="176"><path fill="#442ea4" stroke="#442ea4" stroke-width="1.51" d="M141,88L153,191L217,103Z"/><path fill="#3d279d" stroke="#3d279d" stroke-width="1.51" d="M153,191L230,171L217,103Z"/><path fill="#3b259b" stroke="#3b259b" stroke-width="1.51" d="M153,191L183,247L230,171Z"/><path fill="#6243a7" stroke="#6243a7" stroke-width="1.51" d="M141,88L62,90L153,191Z"/><path fill="#482e9f" stroke="#482e9f" stroke-width="1.51" d="M153,191L84,241L183,247Z"/><path fill="#3b259b" stroke="#3b259b" stroke-width="1.51" d="M230,171L297,158L217,103Z"/><path fill="#351f95" stroke="#351f95" stroke-width="1.51" d="M248,259L297,158L230,171Z"/><path fill="#7350a0" stroke="#7350a0" stroke-width="1.51" d="M62,90L53,203L153,191Z"/><path fill="#6c499e" stroke="#6c499e" stroke-width="1.51" d="M53,203L84,241L153,191Z"/><path fill="#9c7ca9" stroke="#9c7ca9" stroke-width="1.51" d="M172,-12L89,19L141,88Z"/><path fill="#8f6eab" stroke="#8f6eab" stroke-width="1.51" d="M141,88L89,19L62,90Z"/><path fill="#4f329f" stroke="#4f329f" stroke-width="1.51" d="M-30,280L248,259L183,247Z"/><path fill="#382299" stroke="#382299" stroke-width="1.51" d="M183,247L248,259L230,171Z"/><path fill="#7151a9" stroke="#7151a9" stroke-width="1.51" d="M217,103L172,-12L141,88Z"/><path fill="#9978a3" stroke="#9978a3" stroke-width="1.51" d="M260,-29L172,-12L217,103Z"/><path fill="#3b259b" stroke="#3b259b" stroke-width="1.51" d="M297,158L339,100L217,103Z"/><path fill="#362096" stroke="#362096" stroke-width="1.51" d="M408,181L339,100L297,158Z"/><path fill="#ac8fa3" stroke="#ac8fa3" stroke-width="1.51" d="M-41,83L-10,170L62,90Z"/><path fill="#95749f" stroke="#95749f" stroke-width="1.51" d="M62,90L-10,170L53,203Z"/><path fill="#93709c" stroke="#93709c" stroke-width="1.51" d="M53,203L-30,280L84,241Z"/><path fill="#6c4ba1" stroke="#6c4ba1" stroke-width="1.51" d="M339,100L260,-29L217,103Z"/><path fill="#311b92" stroke="#311b92" stroke-width="1.51" d="M248,259L361,236L297,158Z"/><path fill="#d6c2a2" stroke="#d6c2a2" stroke-width="1.51" d="M-15,-29L-41,83L62,90Z"/><path fill="#c9b2a4" stroke="#c9b2a4" stroke-width="1.51" d="M172,-12L61,-70L89,19Z"/><path fill="#d2bea2" stroke="#d2bea2" stroke-width="1.51" d="M89,19L-15,-29L62,90Z"/><path fill="#ad8fa2" stroke="#ad8fa2" stroke-width="1.51" d="M260,-29L213,-78L172,-12Z"/><path fill="#aa8b9e" stroke="#aa8b9e" stroke-width="1.51" d="M260,-29L308,-74L213,-78Z"/><path fill="#9a789c" stroke="#9a789c" stroke-width="1.51" d="M339,100L321,-29L260,-29Z"/><path fill="#88649d" stroke="#88649d" stroke-width="1.51" d="M430,23L321,-29L339,100Z"/><path fill="#c2a9a5" stroke="#c2a9a5" stroke-width="1.51" d="M127,-119L61,-70L172,-12Z"/><path fill="#311b92" stroke="#311b92" stroke-width="1.51" d="M361,236L408,181L297,158Z"/><path fill="#a4859b" stroke="#a4859b" stroke-width="1.51" d="M-10,170L-30,280L53,203Z"/><path fill="#78549e" stroke="#78549e" stroke-width="1.51" d="M84,241L-30,280L183,247Z"/><path fill="#a7879a" stroke="#a7879a" stroke-width="1.51" d="M-105,189L-30,280L-10,170Z"/><path fill="#e9de9d" stroke="#e9de9d" stroke-width="1.51" d="M61,-70L-15,-29L89,19Z"/><path fill="#a7889b" stroke="#a7889b" stroke-width="1.51" d="M321,-29L308,-74L260,-29Z"/><path fill="#a7879a" stroke="#a7879a" stroke-width="1.51" d="M450,-92L308,-74L321,-29Z"/><path fill="#b193a5" stroke="#b193a5" stroke-width="1.51" d="M213,-78L127,-119L172,-12Z"/><path fill="#fbf798" stroke="#fbf798" stroke-width="1.51" d="M61,-70L-17,-91L-15,-29Z"/><path fill="#ad8fa1" stroke="#ad8fa1" stroke-width="1.51" d="M308,-74L127,-119L213,-78Z"/><path fill="#311b92" stroke="#311b92" stroke-width="1.51" d="M248,259L418,238L361,236Z"/><path fill="#311b92" stroke="#311b92" stroke-width="1.51" d="M361,236L418,238L408,181Z"/><path fill="#ae90a2" stroke="#ae90a2" stroke-width="1.51" d="M-143,90L-105,189L-41,83Z"/><path fill="#aa8c9e" stroke="#aa8c9e" stroke-width="1.51" d="M-41,83L-105,189L-10,170Z"/><path fill="#392399" stroke="#392399" stroke-width="1.51" d="M452,92L339,100L408,181Z"/><path fill="#583a9f" stroke="#583a9f" stroke-width="1.51" d="M452,92L430,23L339,100Z"/><path fill="#321c93" stroke="#321c93" stroke-width="1.51" d="M418,238L452,92L408,181Z"/><path fill="#cfb9a3" stroke="#cfb9a3" stroke-width="1.51" d="M-128,-2L-143,90L-41,83Z"/><path fill="#e3d59e" stroke="#e3d59e" stroke-width="1.51" d="M127,-119L-17,-91L61,-70Z"/><path fill="#a7879a" stroke="#a7879a" stroke-width="1.51" d="M-105,189L-95,299L-30,280Z"/><path fill="#8f6d9c" stroke="#8f6d9c" stroke-width="1.51" d="M-30,280L-95,299L248,259Z"/><path fill="#f1e99b" stroke="#f1e99b" stroke-width="1.51" d="M-128,-2L-41,83L-15,-29Z"/><path fill="#a7879a" stroke="#a7879a" stroke-width="1.51" d="M-105,189L-143,90L-95,299Z"/><path fill="#fffe96" stroke="#fffe96" stroke-width="1.51" d="M-104,-70L-128,-2L-15,-29Z"/><path fill="#fffe96" stroke="#fffe96" stroke-width="1.51" d="M-17,-91L-104,-70L-15,-29Z"/><path fill="#9f7f9b" stroke="#9f7f9b" stroke-width="1.51" d="M452,92L450,-92L430,23Z"/><path fill="#a7879a" stroke="#a7879a" stroke-width="1.51" d="M430,23L450,-92L321,-29Z"/><path fill="#a7889b" stroke="#a7889b" stroke-width="1.51" d="M308,-74L450,-92L127,-119Z"/></svg>