<svg xmlns="http://www.w3.org/2000/svg" width="300" height="176"><path fill="#648dcb" stroke="#648dcb" stroke-width="1.51" d="M124,80L74,-1L84,103Z"/><path fill="#6ca5d2" stroke="#6ca5d2" stroke-width="1.51" d="M124,80L149,-13L74,-1Z"/><path fill="#6fadd4" stroke="#6fadd4" stroke-width="1.51" d="M74,-1L-16,58L84,103Z"/><path fill="#4d60b9" stroke="#4d60b9" stroke-width="1.51" d="M84,103L178,156L124,80Z"/><path fill="#6491ca" stroke="#6491ca" stroke-width="1.51" d="M-16,58L41,144L84,103Z"/><path fill="#638eca" stroke="#638eca" stroke-width="1.51" d="M124,80L224,9L149,-13Z"/><path fill="#526bbb" stroke="#526bbb" stroke-width="1.51" d="M41,144L178,156L84,103Z"/><path fill="#7de8e6" stroke="#7de8e6" stroke-width="1.51" d="M74,-1L-49,-12L-16,58Z"/><path fill="#7ff3e9" stroke="#7ff3e9" stroke-width="1.51" d="M-1,-98L-49,-12L74,-1Z"/><path fill="#546dbe" stroke="#546dbe" stroke-width="1.51" d="M240,90L224,9L124,80Z"/><path fill="#71b2d6" stroke="#71b2d6" stroke-width="1.51" d="M154,-115L80,-103L149,-13Z"/><path fill="#74c0da" stroke="#74c0da" stroke-width="1.51" d="M149,-13L80,-103L74,-1Z"/><path fill="#4553b3" stroke="#4553b3" stroke-width="1.51" d="M178,156L240,90L124,80Z"/><path fill="#7adce2" stroke="#7adce2" stroke-width="1.51" d="M80,-103L-1,-98L74,-1Z"/><path fill="#77cdde" stroke="#77cdde" stroke-width="1.51" d="M80,-103L154,-115L-1,-98Z"/><path fill="#6ba4d0" stroke="#6ba4d0" stroke-width="1.51" d="M231,-98L154,-115L149,-13Z"/><path fill="#679ecb" stroke="#679ecb" stroke-width="1.51" d="M-16,58L-24,208L41,144Z"/><path fill="#4559b0" stroke="#4559b0" stroke-width="1.51" d="M41,144L154,268L178,156Z"/><path fill="#669ecb" stroke="#669ecb" stroke-width="1.51" d="M-119,150L-24,208L-16,58Z"/><path fill="#3d4cac" stroke="#3d4cac" stroke-width="1.51" d="M178,156L258,151L240,90Z"/><path fill="#649bc8" stroke="#649bc8" stroke-width="1.51" d="M343,-78L231,-98L224,9Z"/><path fill="#3745a5" stroke="#3745a5" stroke-width="1.51" d="M242,281L258,151L178,156Z"/><path fill="#7ce5e5" stroke="#7ce5e5" stroke-width="1.51" d="M-49,-12L-122,13L-16,58Z"/><path fill="#7ff8ea" stroke="#7ff8ea" stroke-width="1.51" d="M-109,-100L-122,13L-49,-12Z"/><path fill="#69a1ce" stroke="#69a1ce" stroke-width="1.51" d="M224,9L231,-98L149,-13Z"/><path fill="#5c84c0" stroke="#5c84c0" stroke-width="1.51" d="M359,-22L224,9L240,90Z"/><path fill="#6ca6d2" stroke="#6ca6d2" stroke-width="1.51" d="M-146,69L-119,150L-16,58Z"/><path fill="#77ccde" stroke="#77ccde" stroke-width="1.51" d="M-122,13L-146,69L-16,58Z"/><path fill="#4f6bb7" stroke="#4f6bb7" stroke-width="1.51" d="M68,283L154,268L41,144Z"/><path fill="#6298c5" stroke="#6298c5" stroke-width="1.51" d="M-48,280L68,283L-24,208Z"/><path fill="#5d89c0" stroke="#5d89c0" stroke-width="1.51" d="M-24,208L68,283L41,144Z"/><path fill="#7ff8ea" stroke="#7ff8ea" stroke-width="1.51" d="M-122,13L-109,-100L-146,69Z"/><path fill="#7ff8ea" stroke="#7ff8ea" stroke-width="1.51" d="M-1,-98L-109,-100L-49,-12Z"/><path fill="#7ef0e8" stroke="#7ef0e8" stroke-width="1.51" d="M154,-115L-109,-100L-1,-98Z"/><path fill="#6298c5" stroke="#6298c5" stroke-width="1.51" d="M-140,280L-48,280L-24,208Z"/><path fill="#3a48a8" stroke="#3a48a8" stroke-width="1.51" d="M258,151L349,120L240,90Z"/><path fill="#3442a2" stroke="#3442a2" stroke-width="1.51" d="M338,190L349,120L258,151Z"/><path fill="#3d4bab" stroke="#3d4bab" stroke-width="1.51" d="M68,283L242,281L154,268Z"/><path fill="#3a48a8" stroke="#3a48a8" stroke-width="1.51" d="M154,268L242,281L178,156Z"/><path fill="#597fbd" stroke="#597fbd" stroke-width="1.51" d="M389,18L359,-22L240,90Z"/><path fill="#6298c5" stroke="#6298c5" stroke-width="1.51" d="M359,-22L343,-78L224,9Z"/><path fill="#649ac7" stroke="#649ac7" stroke-width="1.51" d="M231,-98L437,-68L154,-115Z"/><path fill="#3241a1" stroke="#3241a1" stroke-width="1.51" d="M242,281L338,190L258,151Z"/><path fill="#6298c5" stroke="#6298c5" stroke-width="1.51" d="M359,-22L437,-68L343,-78Z"/><path fill="#4456af" stroke="#4456af" stroke-width="1.51" d="M349,120L389,18L240,90Z"/><path fill="#4050ad" stroke="#4050ad" stroke-width="1.51" d="M394,110L389,18L349,120Z"/><path fill="#6298c5" stroke="#6298c5" stroke-width="1.51" d="M-119,150L-140,280L-24,208Z"/><path fill="#6298c5" stroke="#6298c5" stroke-width="1.51" d="M-48,280L-140,280L68,283Z"/><path fill="#639ac7" stroke="#639ac7" stroke-width="1.51" d="M-146,69L-140,280L-119,150Z"/><path fill="#3644a4" stroke="#3644a4" stroke-width="1.51" d="M338,190L394,110L349,120Z"/><path fill="#3140a0" stroke="#3140a0" stroke-width="1.51" d="M338,190L423,207L394,110Z"/><path fill="#303f9f" stroke="#303f9f" stroke-width="1.51" d="M242,281L349,295L338,190Z"/><path fill="#3746a6" stroke="#3746a6" stroke-width="1.51" d="M68,283L349,295L242,281Z"/><path fill="#4e69b6" stroke="#4e69b6" stroke-width="1.51" d="M-140,280L349,295L68,283Z"/><path fill="#6298c5" stroke="#6298c5" stroke-width="1.51" d="M389,18L437,-68L359,-22Z"/><path fill="#6298c5" stroke="#6298c5" stroke-width="1.51" d="M343,-78L437,-68L231,-98Z"/><path fill="#5c86c0" stroke="#5c86c0" stroke-width="1.51" d="M394,110L437,-68L389,18Z"/><path fill="#4050ad" stroke="#4050ad" stroke-width="1.51" d="M394,110L423,207L437,-68Z"/><path fill="#303f9f" stroke="#303f9f" stroke-width="1.51" d="M408,287L423,207L338,190Z"/><path fill="#303f9f" stroke="#303f9f" stroke-width="1.51" d="M349,295L408,287L338,190Z"/></svg>