<svg xmlns="http://www.w3.org/2000/svg" width="300" height="176"><path fill="#e75746" stroke="#e75746" stroke-width="1.51" d="M118,119L80,64L65,157Z"/><path fill="#e17265" stroke="#e17265" stroke-width="1.51" d="M80,64L-9,114L65,157Z"/><path fill="#c6aab6" stroke="#c6aab6" stroke-width="1.51" d="M80,64L-59,-24L-9,114Z"/><path fill="#ea5d4e" stroke="#ea5d4e" stroke-width="1.51" d="M212,101L88,18L80,64Z"/><path fill="#ee2d24" stroke="#ee2d24" stroke-width="1.51" d="M118,119L212,101L80,64Z"/><path fill="#e43f2e" stroke="#e43f2e" stroke-width="1.51" d="M65,157L164,175L118,119Z"/><path fill="#e71413" stroke="#e71413" stroke-width="1.51" d="M164,175L212,101L118,119Z"/><path fill="#d38680" stroke="#d38680" stroke-width="1.51" d="M-9,114L-49,184L65,157Z"/><path fill="#e12e1f" stroke="#e12e1f" stroke-width="1.51" d="M65,157L164,249L164,175Z"/><path fill="#bbb5c7" stroke="#bbb5c7" stroke-width="1.51" d="M88,18L-59,-24L80,64Z"/><path fill="#e57468" stroke="#e57468" stroke-width="1.51" d="M212,101L127,-27L88,18Z"/><path fill="#e10e0d" stroke="#e10e0d" stroke-width="1.51" d="M164,175L262,158L212,101Z"/><path fill="#e04532" stroke="#e04532" stroke-width="1.51" d="M90,286L164,249L65,157Z"/><path fill="#cf867f" stroke="#cf867f" stroke-width="1.51" d="M-49,184L-46,239L65,157Z"/><path fill="#d77264" stroke="#d77264" stroke-width="1.51" d="M-46,239L90,286L65,157Z"/><path fill="#a3c6e3" stroke="#a3c6e3" stroke-width="1.51" d="M74,-78L-59,-24L88,18Z"/><path fill="#d28782" stroke="#d28782" stroke-width="1.51" d="M-9,114L-116,161L-49,184Z"/><path fill="#c8a8b2" stroke="#c8a8b2" stroke-width="1.51" d="M127,-27L74,-78L88,18Z"/><path fill="#b7b8cc" stroke="#b7b8cc" stroke-width="1.51" d="M-59,-24L-101,22L-9,114Z"/><path fill="#cf867f" stroke="#cf867f" stroke-width="1.51" d="M-49,184L-114,250L-46,239Z"/><path fill="#d68a85" stroke="#d68a85" stroke-width="1.51" d="M-137,92L-116,161L-9,114Z"/><path fill="#dc0908" stroke="#dc0908" stroke-width="1.51" d="M211,270L262,158L164,175Z"/><path fill="#e0776c" stroke="#e0776c" stroke-width="1.51" d="M212,101L234,-12L127,-27Z"/><path fill="#e33f2e" stroke="#e33f2e" stroke-width="1.51" d="M342,113L234,-12L212,101Z"/><path fill="#d19ca0" stroke="#d19ca0" stroke-width="1.51" d="M127,-27L158,-90L74,-78Z"/><path fill="#d59798" stroke="#d59798" stroke-width="1.51" d="M-101,22L-137,92L-9,114Z"/><path fill="#e10e0d" stroke="#e10e0d" stroke-width="1.51" d="M90,286L211,270L164,249Z"/><path fill="#df0c0b" stroke="#df0c0b" stroke-width="1.51" d="M164,249L211,270L164,175Z"/><path fill="#d98b87" stroke="#d98b87" stroke-width="1.51" d="M234,-12L158,-90L127,-27Z"/><path fill="#cf867f" stroke="#cf867f" stroke-width="1.51" d="M-116,161L-114,250L-49,184Z"/><path fill="#cf867f" stroke="#cf867f" stroke-width="1.51" d="M-46,239L-114,250L90,286Z"/><path fill="#d08680" stroke="#d08680" stroke-width="1.51" d="M-137,92L-114,250L-116,161Z"/><path fill="#b6b9ce" stroke="#b6b9ce" stroke-width="1.51" d="M158,-90L-48,-94L74,-78Z"/><path fill="#80d6ff" stroke="#80d6ff" stroke-width="1.51" d="M74,-78L-48,-94L-59,-24Z"/><path fill="#80d6ff" stroke="#80d6ff" stroke-width="1.51" d="M-59,-24L-134,-117L-101,22Z"/><path fill="#80d6ff" stroke="#80d6ff" stroke-width="1.51" d="M-101,22L-134,-117L-137,92Z"/><path fill="#d80303" stroke="#d80303" stroke-width="1.51" d="M211,270L317,187L262,158Z"/><path fill="#df0b0b" stroke="#df0b0b" stroke-width="1.51" d="M262,158L342,113L212,101Z"/><path fill="#d80403" stroke="#d80403" stroke-width="1.51" d="M317,187L342,113L262,158Z"/><path fill="#d68a85" stroke="#d68a85" stroke-width="1.51" d="M234,-12L256,-111L158,-90Z"/><path fill="#80d6ff" stroke="#80d6ff" stroke-width="1.51" d="M158,-90L-134,-117L-48,-94Z"/><path fill="#d08680" stroke="#d08680" stroke-width="1.51" d="M361,-73L256,-111L234,-12Z"/><path fill="#d60101" stroke="#d60101" stroke-width="1.51" d="M211,270L343,242L317,187Z"/><path fill="#da0605" stroke="#da0605" stroke-width="1.51" d="M417,207L394,101L342,113Z"/><path fill="#e12f20" stroke="#e12f20" stroke-width="1.51" d="M394,101L360,15L342,113Z"/><path fill="#dc614f" stroke="#dc614f" stroke-width="1.51" d="M342,113L360,15L234,-12Z"/><path fill="#80d6ff" stroke="#80d6ff" stroke-width="1.51" d="M-48,-94L-134,-117L-59,-24Z"/><path fill="#c7a9b4" stroke="#c7a9b4" stroke-width="1.51" d="M256,-111L-134,-117L158,-90Z"/><path fill="#d60101" stroke="#d60101" stroke-width="1.51" d="M417,207L342,113L317,187Z"/><path fill="#cf867f" stroke="#cf867f" stroke-width="1.51" d="M401,12L361,-73L360,15Z"/><path fill="#cf867f" stroke="#cf867f" stroke-width="1.51" d="M360,15L361,-73L234,-12Z"/><path fill="#dd5c4a" stroke="#dd5c4a" stroke-width="1.51" d="M394,101L401,12L360,15Z"/><path fill="#d50000" stroke="#d50000" stroke-width="1.51" d="M343,242L417,207L317,187Z"/><path fill="#df0c0b" stroke="#df0c0b" stroke-width="1.51" d="M394,101L417,207L401,12Z"/><path fill="#d50000" stroke="#d50000" stroke-width="1.51" d="M343,242L438,288L417,207Z"/><path fill="#dd5a47" stroke="#dd5a47" stroke-width="1.51" d="M417,207L431,-85L401,12Z"/><path fill="#d50000" stroke="#d50000" stroke-width="1.51" d="M211,270L438,288L343,242Z"/><path fill="#d90505" stroke="#d90505" stroke-width="1.51" d="M90,286L438,288L211,270Z"/><path fill="#db0606" stroke="#db0606" stroke-width="1.51" d="M438,288L431,-85L417,207Z"/><path fill="#cf867f" stroke="#cf867f" stroke-width="1.51" d="M401,12L431,-85L361,-73Z"/><path fill="#cf867f" stroke="#cf867f" stroke-width="1.51" d="M361,-73L431,-85L256,-111Z"/></svg>